<svg width="49" height="48" viewBox="0 0 49 48" fill="none" xmlns="http://www.w3.org/2000/svg">
<g style="mix-blend-mode:lighten" opacity="0.1">
<circle cx="24.5" cy="24" r="24" fill="#00BC4B"/>
</g>
<g clip-path="url(#clip0)">
<path d="M29.4219 19.1166V16.2656H28.7188C26.8017 16.2656 25.072 17.3773 24.2686 19.0781H20.2812C18.0921 19.0781 16.1142 20.1965 14.9775 21.8906H14.6094C14.2214 21.8906 13.9062 21.5754 13.9062 21.1875C13.9062 20.7996 14.2214 20.4844 14.6094 20.4844V19.0781C13.4462 19.0781 12.5 20.0243 12.5 21.1875C12.5 22.2463 13.2865 23.1168 14.3045 23.2661C14.0612 23.9376 13.9062 24.6517 13.9062 25.4062V26.8125C13.9062 27.5967 14.045 28.354 14.3189 29.0626C14.3574 29.1629 16.984 36 16.984 36H20.9844V33.1406H27.2747L28.212 36H32.2344V32.0756C33.368 31.3155 34.2325 30.1997 34.6816 28.9219H36.5V21.8906H33.9585C32.9011 20.3196 31.26 19.3205 29.4219 19.1166ZM23.0938 23.2969H20.2812C19.7182 23.2969 19.1895 23.5166 18.7912 23.9155L17.7956 22.9213C18.4596 22.2566 19.3426 21.8906 20.2812 21.8906H23.0938V23.2969ZM29.4219 25.4062C29.4219 25.0183 29.1067 24.7031 28.7188 24.7031C28.3308 24.7031 28.0156 25.0183 28.0156 25.4062H26.6094C26.6094 24.2431 27.5556 23.2969 28.7188 23.2969C29.8819 23.2969 30.8281 24.2431 30.8281 25.4062H29.4219Z" fill="#00BC4B"/>
<path d="M22.3906 14.8594C22.3906 13.3082 21.1293 12 19.5781 12C18.027 12 16.7656 13.3082 16.7656 14.8594C16.7656 16.4105 18.027 17.6719 19.5781 17.6719C21.1293 17.6719 22.3906 16.4105 22.3906 14.8594Z" fill="#00BC4B"/>
</g>
<defs>
<clipPath id="clip0">
<rect width="24" height="24" fill="white" transform="translate(12.5 12)"/>
</clipPath>
</defs>
</svg>