<svg width="48" height="48" viewBox="0 0 48 48" fill="none" xmlns="http://www.w3.org/2000/svg">
<g style="mix-blend-mode:lighten" opacity="0.1">
<circle cx="24" cy="24" r="24" fill="#00C2FF"/>
</g>
<g clip-path="url(#clip0)">
<path d="M33.3616 18.1246C32.3854 16.5456 30.9931 15.2797 29.3352 14.4637C28.0914 13.8515 26.7373 13.5094 25.3625 13.454L25.2782 15.6263C29.3779 15.7898 32.663 19.1755 32.663 23.3147C32.663 24.4414 32.4196 25.5123 31.9827 26.4777L33.9748 27.345C34.5111 26.1464 34.805 24.8481 34.8343 23.5211C34.8764 21.6173 34.3671 19.7512 33.3616 18.1246Z" fill="#00C2FF"/>
<path d="M24.9851 23.4311L27.456 24.5069C27.6296 24.1458 27.727 23.7415 27.727 23.3147C27.727 21.8331 26.5531 20.621 25.0866 20.5584L24.9767 23.3901L24.983 23.4295L24.9851 23.4311Z" fill="#00C2FF"/>
<path d="M25.2236 17.0314L25.1412 19.1531C27.3579 19.2443 29.1333 21.076 29.1333 23.3148C29.1333 23.9409 28.9942 24.5351 28.7456 25.0684L30.693 25.9162C31.0549 25.123 31.2568 24.242 31.2568 23.3147C31.2568 19.9327 28.5732 17.1661 25.2236 17.0314Z" fill="#00C2FF"/>
<path d="M29.5817 28.3107C29.2921 27.8367 28.7867 27.5749 28.2688 27.5749C28.0227 27.5749 27.774 27.6347 27.544 27.7583C27.5207 27.7709 27.1222 28.0105 27.1222 28.0105L31.1682 34.6331C31.2847 34.567 31.4012 34.4985 31.5178 34.4273C32.2421 33.9848 32.4704 33.039 32.028 32.3147L31.3415 31.1911L29.5817 28.3107Z" fill="#00C2FF"/>
<path d="M25.8977 28.7038C25.5684 28.6897 24.241 28.5232 22.7286 26.826C22.3525 26.4039 21.9651 25.8875 21.5786 25.255C21.2674 24.7455 21.0235 24.2699 20.8338 23.8286C19.8408 21.5187 20.3366 20.1522 20.4811 19.8382L16.4786 13.2869C12.0288 17.0618 12.3625 23.0208 15.6749 28.4425L16.0481 29.0534C18.6091 33.2452 22.2692 36 26.2886 36C27.4679 36 28.678 35.7627 29.9004 35.2554L25.8977 28.7038Z" fill="#00C2FF"/>
<path d="M21.6595 19.0695L22.0056 18.8581C22.7299 18.4156 22.9583 17.4698 22.5158 16.7455L20.6524 13.6955L20.0661 12.7358C19.7768 12.2624 19.2716 12 18.7533 12C18.4905 12 18.2243 12.0675 17.9811 12.2091L17.9533 12.2253C17.9533 12.2253 17.7231 12.3694 17.611 12.4429L21.6595 19.0695Z" fill="#00C2FF"/>
</g>
<defs>
<clipPath id="clip0">
<rect width="24" height="24" fill="white" transform="translate(12 12)"/>
</clipPath>
</defs>
</svg>