+<svg width="104" height="58" viewBox="0 0 104 58" fill="none" xmlns="http://www.w3.org/2000/svg">
<path d="M74.5326 44.0657H74.5246C74.4251 44.0657 74.3295 44.1095 74.2539 44.1852C74.1742 44.2688 74.1264 44.3763 74.1304 44.4878C74.1344 44.7108 74.3136 44.882 74.5485 44.886C75.1618 44.9059 75.775 44.9258 76.3883 44.9457C75.771 45.563 75.3688 46.3196 75.2175 47.1279C75.1777 47.3469 75.1578 47.5739 75.1538 47.8049C75.1498 48.0637 75.1817 48.3146 75.2175 48.5296C75.2852 48.9517 75.4405 49.3937 75.6755 49.8397C75.8945 50.2539 76.1971 50.6521 76.5794 51.0304C76.89 51.341 77.2603 51.6197 77.6824 51.8626C78.0169 52.0617 78.4231 52.2369 78.9169 52.4082C79.3071 52.5396 79.7372 52.6511 80.231 52.7427C81.0991 52.898 82.0428 52.9776 83.11 52.9776C84.0498 52.9776 84.9975 52.9179 85.8776 52.8542L86.2598 52.8263L86.3196 52.8223C87.7053 52.7227 89.1349 52.6192 90.5286 52.452C92.5993 52.1971 94.2399 51.8547 95.6974 51.3728C97.565 50.7556 98.9587 49.9472 99.9502 48.9039C100.177 48.665 100.396 48.3902 100.603 48.0836C100.627 48.0478 100.643 48.0159 100.651 47.9801C100.735 48.0119 100.83 48.0358 100.926 48.0637L101.021 48.0876C101.049 48.0996 101.085 48.1035 101.121 48.1035C101.308 48.1035 101.475 47.9721 101.519 47.7929C101.575 47.5779 101.44 47.3549 101.221 47.2952C96.9 46.1563 92.1254 45.336 86.6142 44.7904C82.9746 44.4321 79.1359 44.2011 74.5326 44.0657Z" fill="#87869D"/>
<path d="M5.78225 0.684918C5.77429 0.684918 5.76633 0.6889 5.75438 0.6889C5.45572 0.720757 5.15309 0.760577 4.85443 0.808362C4.86239 0.808362 4.87434 0.80438 4.8823 0.80438C4.51197 0.868094 4.14164 0.939771 3.7713 1.02339C3.72352 1.03534 3.67972 1.05127 3.63193 1.06322C3.36911 1.1548 3.1063 1.26232 2.85144 1.38576C2.70411 1.47735 2.56075 1.5769 2.42536 1.6884C2.30988 1.77601 2.19838 1.8676 2.09087 1.96317L2.01521 2.04281C1.62894 2.50473 1.29445 3.01842 1.01969 3.56794C0.593603 4.444 0.29893 5.45943 0.147611 6.58238C-0.182902 9.00747 0.143628 11.4724 0.466177 13.3479C0.661299 14.4828 0.908188 15.6018 1.11924 16.5535L1.20286 16.9358C1.41789 17.8875 1.62894 18.8352 1.85194 19.787C2.55677 22.7934 3.4607 25.8795 4.53586 28.9497C5.56722 31.8885 6.78176 34.8671 8.14761 37.7979C8.71705 39.0204 9.36214 40.3504 10.1227 41.8716C10.8594 43.3489 11.5403 44.6272 12.2053 45.778C13.6469 48.2787 15.1521 50.3773 16.7927 52.1772C16.9918 52.3524 17.1989 52.5236 17.402 52.6949C17.4099 52.6949 17.4219 52.6949 17.4298 52.6949C17.4856 52.7705 17.5732 52.8223 17.6688 52.8422C24.3826 53.9851 31.7972 54.8771 40.3348 55.5739C47.7375 56.1752 55.0525 56.5655 63.168 56.9756C64.1277 57.0234 65.0874 57.0752 66.051 57.1269C67.3293 57.1946 68.6115 57.2623 69.8937 57.326C71.5344 57.4057 73.6966 57.5012 75.8987 57.5012C76.1894 57.5012 76.4841 57.5012 76.7748 57.4973C76.8186 57.5132 76.8624 57.5172 76.9062 57.5172C81.7842 57.2464 86.8494 56.7008 92.4164 55.8487C94.0371 55.6018 95.7454 55.3151 97.6369 54.9806C98.509 54.8253 99.3771 54.67 100.245 54.5067L100.894 54.3833L101.547 54.2598L101.882 54.1961C102.208 54.1324 102.547 54.0647 102.881 54.0169C103.009 53.997 103.128 53.9253 103.192 53.8178C103.24 53.7899 103.283 53.7461 103.335 53.6745C103.506 53.4475 103.646 53.1887 103.769 52.8581C103.893 52.5316 103.945 52.1931 103.972 51.9343C104.004 51.6476 104 51.3489 103.964 51.0144C103.925 50.66 103.849 50.3136 103.749 49.995C103.299 48.6132 102.344 47.6098 101.189 47.3191C101.161 47.3111 101.125 47.3071 101.085 47.3071C101.01 47.2912 100.966 47.2832 100.922 47.2832C100.906 47.2832 100.894 47.2832 100.878 47.2872C97.7046 47.6894 94.4672 48.0199 91.3412 48.3425C89.3263 48.5495 87.2397 48.7646 85.1929 48.9915C82.8156 49.2583 80.729 49.5251 78.8176 49.8039C78.5747 48.3823 78.2521 46.9607 77.9415 45.6426C77.615 44.2568 77.2964 42.8671 76.9858 41.4774L76.5637 39.5779C76.0899 37.4355 75.612 35.2892 75.1182 33.1508C74.3816 29.9492 73.7325 27.3171 73.0794 24.8601C72.4184 22.3793 71.6578 19.775 70.8136 17.1269C70.1645 15.0881 69.4159 12.9179 68.3646 10.891C67.843 9.88352 67.2496 8.93977 66.6006 8.07964C66.0152 7.30314 65.3343 6.56645 64.5737 5.8895C64.4104 5.778 64.2472 5.6665 64.0879 5.55102C64.0242 5.51518 63.9644 5.47934 63.9007 5.4435C63.3392 5.17272 62.7698 4.92185 62.1964 4.67894C62.1765 4.67098 62.1526 4.66302 62.1327 4.65505C56.6573 2.99452 50.497 1.80786 43.385 1.03932C37.1133 0.350423 30.3159 0.0238925 21.9853 0C21.6747 0 21.3602 0 21.0496 0C16.4741 0 11.174 0.0915879 5.78225 0.684918Z" fill="#66658C"/>
<path d="M5.778 0.672972C5.45147 0.70881 5.15281 0.748631 4.85415 0.796416C4.50373 0.856147 4.12942 0.931807 3.76705 1.01145L3.70731 1.02738L3.62767 1.05127C3.34893 1.1548 3.09407 1.26232 2.85117 1.3778C2.69985 1.46939 2.56048 1.56894 2.41712 1.68044C2.30164 1.76804 2.19412 1.86361 2.08263 1.95918L2.00697 2.03883C1.6207 2.50075 1.28223 3.01444 1.01145 3.56794C0.585364 4.444 0.29069 5.45943 0.139371 6.58636C-0.191142 9.01145 0.135389 11.4764 0.457937 13.3519C0.649077 14.4749 0.895966 15.5978 1.111 16.5575L1.1986 16.9398C1.40965 17.8915 1.62469 18.8392 1.84768 19.7909C2.55649 22.8094 3.45644 25.8915 4.53161 28.9577C5.56296 31.9084 6.78148 34.883 8.14335 37.8059C8.70881 39.0244 9.3539 40.3544 10.1185 41.8795C10.8512 43.3529 11.5361 44.6312 12.2011 45.786C13.6466 48.2907 15.1478 50.3853 16.7884 52.1891C16.9876 52.3644 17.1946 52.5356 17.3977 52.7068C17.4893 52.7904 17.5769 52.8382 17.6685 52.8581C24.3902 54.001 31.8049 54.897 40.3345 55.5898C47.7292 56.1911 55.0483 56.5814 63.1717 56.9915C63.8049 57.0234 64.442 57.0552 65.0791 57.0911L66.0547 57.1428C67.337 57.2105 68.6152 57.2782 69.8975 57.342C71.546 57.4256 73.7163 57.5172 75.9024 57.5172C76.1931 57.5172 76.4878 57.5172 76.7785 57.5132C76.8183 57.5291 76.8621 57.5331 76.9099 57.5331C81.772 57.2623 86.8452 56.7168 92.4201 55.8606C94.0488 55.6097 95.7571 55.327 97.6406 54.9925C98.5127 54.8372 99.3808 54.6819 100.249 54.5187L100.898 54.3952L101.551 54.2718L101.886 54.2081C102.192 54.1483 102.543 54.0766 102.885 54.0289C103.02 54.0089 103.136 53.9333 103.2 53.8218C103.243 53.7979 103.287 53.7581 103.343 53.6824C103.514 53.4554 103.654 53.1966 103.777 52.8661C103.821 52.7506 103.857 52.6311 103.885 52.5117C103.693 52.5794 103.506 52.6471 103.315 52.7108C102.622 52.9537 101.921 53.1807 101.217 53.3838C99.99 53.7422 98.7516 54.0567 97.5052 54.3275C94.9288 54.885 92.3166 55.2872 89.6924 55.55C86.9129 55.8248 84.1214 55.9602 81.33 55.9562C78.5067 55.9522 75.6794 55.8208 72.8681 55.55C70.1523 55.2872 67.4485 54.9089 64.7765 54.3872C62.1881 53.8815 59.6157 53.2563 57.099 52.4559C55.9124 52.0816 54.7377 51.6715 53.5789 51.2215C52.4639 50.7914 51.3609 50.3335 50.2698 49.8477C47.9642 48.8163 45.7063 47.6695 43.5162 46.4072C41.2782 45.117 39.1 43.7193 36.9935 42.214C34.9029 40.7168 32.8761 39.1239 30.9328 37.4316C28.9537 35.7033 27.0543 33.8795 25.2583 31.9562C23.5022 30.0727 21.8337 28.1015 20.2807 26.0428C18.7198 23.9642 17.2663 21.8059 15.9602 19.56C14.6939 17.3778 13.547 15.12 12.5714 12.7904C11.5879 10.445 10.7516 8.03584 10.1185 5.57491C9.80388 4.34843 9.52513 3.11 9.3101 1.86361C9.22648 1.37382 9.14684 0.884022 9.07516 0.394226C7.98407 0.453957 6.88502 0.553509 5.778 0.672972Z" fill="#4C4B6A"/>
<path d="M64.0756 5.74613C64.0159 5.90144 63.9602 6.05674 63.9203 6.21602C63.8885 6.34743 63.8646 6.48282 63.8407 6.61821C63.8407 6.62219 63.8407 6.62219 63.8407 6.62617C63.8407 6.62219 63.8407 6.62219 63.8407 6.61821C63.8407 6.61423 63.8407 6.61423 63.8407 6.61025C63.8049 6.86908 63.7889 7.12792 63.7969 7.38675C63.8009 7.65355 63.8248 7.91637 63.8606 8.17919C63.8606 8.17122 63.8566 8.16326 63.8566 8.15131C63.9761 8.95967 64.2031 9.74813 64.4579 10.5246C64.5774 10.879 64.6969 11.2334 64.8163 11.5918C64.9557 12.0099 65.0871 12.4281 65.2225 12.8462C65.7959 14.6461 66.3574 16.4539 66.879 18.2698C67.3768 20.0259 67.8387 21.7899 68.2329 23.5699C68.436 24.4858 68.6351 25.4017 68.8382 26.3176C69.0413 27.2374 69.2444 28.1533 69.4515 29.0692C70.2757 32.7367 71.1199 36.4042 71.9761 40.0677C72.8283 43.7312 73.6964 47.3907 74.5605 51.0503C74.7755 51.9661 74.9945 52.882 75.2056 53.7979C75.4166 54.6939 75.6396 55.5858 75.8666 56.4778C75.9542 56.8203 76.0378 57.1588 76.1254 57.5012C76.3405 57.5012 76.5595 57.5012 76.7745 57.4972C76.8143 57.5132 76.8581 57.5172 76.9059 57.5172C81.768 57.2464 86.8412 56.7008 92.4161 55.8447C94.0448 55.5938 95.7531 55.3111 97.6366 54.9766C98.5087 54.8213 99.3768 54.662 100.245 54.5027L100.894 54.3793L101.547 54.2558L101.882 54.1921C102.188 54.1284 102.539 54.0607 102.881 54.0129C103.016 53.993 103.132 53.9134 103.196 53.8059C103.239 53.782 103.283 53.7421 103.339 53.6665C103.51 53.4395 103.65 53.1807 103.773 52.8462C103.896 52.5276 103.944 52.2011 103.98 51.9184C104.012 51.6277 104.008 51.329 103.972 50.9985C103.932 50.6441 103.857 50.2976 103.753 49.9751C103.303 48.5893 102.343 47.5859 101.189 47.2912C101.161 47.2832 101.125 47.2792 101.085 47.2792C101.009 47.2633 100.966 47.2553 100.922 47.2553C100.906 47.2553 100.89 47.2553 100.874 47.2593C97.8278 47.6456 94.7178 47.9641 91.7113 48.2748L91.5401 48.2907L91.333 48.3106C89.3579 48.5097 87.2474 48.7287 85.1847 48.9597C82.7635 49.2344 80.6769 49.4973 78.8093 49.768C78.5664 48.3225 78.2319 46.8571 77.9412 45.6107C77.6147 44.225 77.2962 42.8352 76.9855 41.4455L76.5634 39.546L76.5316 39.4226C76.0657 37.328 75.5958 35.2255 75.118 33.1309C74.3892 29.9532 73.7402 27.321 73.0791 24.8402C72.4141 22.3434 71.6496 19.7392 70.8133 17.107C70.1682 15.0761 69.4236 12.9099 68.3643 10.8711C67.8467 9.87157 67.2533 8.92383 66.6003 8.05972C66.0229 7.29118 65.338 6.5545 64.5694 5.86958C64.4261 5.77401 64.2867 5.67446 64.1473 5.57491C64.1234 5.63065 64.0995 5.6864 64.0756 5.74613ZM63.8407 6.62617C63.8407 6.63016 63.8407 6.63414 63.8407 6.63414C63.8407 6.63016 63.8407 6.63016 63.8407 6.62617Z" fill="#9594AE"/>
<path d="M64.6053 7.6456C64.5057 7.67347 64.4181 7.73718 64.3663 7.82877C64.3106 7.92832 64.3066 8.02788 64.3265 8.13539C64.7765 10.5724 65.776 12.8502 66.5565 15.1916C66.6242 15.3987 66.8273 15.5301 67.0463 15.4704C67.2454 15.4146 67.3927 15.1877 67.325 14.9806C66.5445 12.6431 65.545 10.3614 65.0951 7.92434C65.0632 7.74515 64.876 7.63365 64.7048 7.63365C64.669 7.62967 64.6371 7.63365 64.6053 7.6456Z" fill="#9594AE"/>
<path d="M64.669 8.21106C64.5694 8.23893 64.4858 8.30265 64.4301 8.39423C64.3703 8.49777 64.3743 8.58936 64.3902 8.70085C64.7805 11.5719 65.9433 14.2439 66.8512 16.9716C66.9189 17.1787 67.122 17.3101 67.341 17.2504C67.5401 17.1946 67.6874 16.9677 67.6197 16.7606C66.7158 14.0289 65.553 11.3609 65.1588 8.4898C65.1468 8.39423 65.0553 8.29866 64.9756 8.25088C64.9159 8.21504 64.8442 8.19513 64.7725 8.19513C64.7367 8.19513 64.7008 8.19911 64.669 8.21106Z" fill="#9594AE"/>
<path d="M64.442 8.10353C64.3425 8.1314 64.2588 8.1991 64.2031 8.2867C64.1433 8.38626 64.1473 8.48183 64.1633 8.59333C64.5017 10.9149 65.2265 13.1528 66.0547 15.343C66.0906 15.4425 66.1424 15.5261 66.2379 15.5819C66.3295 15.6376 66.445 15.6496 66.5445 15.6217C66.7397 15.5659 66.8989 15.335 66.8233 15.1319C65.995 12.9418 65.2703 10.7078 64.9358 8.38227C64.9238 8.2867 64.8322 8.19114 64.7526 8.14335C64.6929 8.10751 64.6212 8.0876 64.5495 8.0876C64.5137 8.0876 64.4778 8.09557 64.442 8.10353Z" fill="#9594AE"/>
<path d="M64.3504 8.13141C64.2509 8.15928 64.1672 8.223 64.1115 8.31458C64.0557 8.41015 64.0518 8.51369 64.0717 8.6212C64.7327 11.9741 65.999 15.1558 67.2613 18.3216C67.3011 18.4211 67.3449 18.5007 67.4445 18.5605C67.5361 18.6162 67.6476 18.6282 67.7511 18.6003C67.8507 18.5724 67.9383 18.5047 67.99 18.4171C68.0378 18.3335 68.0697 18.2061 68.0298 18.1105C66.7635 14.9487 65.5012 11.767 64.8402 8.41015C64.8044 8.23096 64.6252 8.11946 64.45 8.11946C64.4141 8.11946 64.3823 8.12344 64.3504 8.13141Z" fill="#9594AE"/>
<path d="M64.6491 9.27426C64.5495 9.30213 64.4619 9.36983 64.4102 9.45744C64.3544 9.55699 64.3464 9.65654 64.3703 9.76406C65.1309 13.6745 66.66 17.3738 67.9622 21.1209C68.0339 21.328 68.233 21.4594 68.452 21.3997C68.6511 21.3439 68.8024 21.113 68.7307 20.9099C67.4246 17.1588 65.8995 13.4634 65.1349 9.55301C65.103 9.37381 64.9199 9.26231 64.7447 9.26231C64.7128 9.26231 64.6809 9.2663 64.6491 9.27426Z" fill="#9594AE"/>
<path d="M64.6411 9.66052C65.0553 14.447 67.0144 18.879 68.4161 23.4226C68.4798 23.6297 68.6909 23.7611 68.9059 23.7013C69.109 23.6456 69.2484 23.4186 69.1847 23.2115C67.8945 19.0423 66.1344 14.9726 65.5411 10.6202C65.5012 10.3016 65.4654 9.98307 65.4375 9.66451C65.4296 9.55699 65.4017 9.46142 65.322 9.38178C65.2504 9.30612 65.1468 9.2663 65.0393 9.2663C64.8362 9.26232 64.6212 9.44549 64.6411 9.66052Z" fill="#9594AE"/>
<path d="M65.4973 11.6516C65.3977 11.6794 65.3101 11.7471 65.2583 11.8347C65.1986 11.9343 65.2026 12.0299 65.2185 12.1414C65.9234 16.9557 67.7233 21.5112 68.9019 26.214C68.9537 26.4251 69.1847 26.5485 69.3917 26.4928C69.6068 26.433 69.7223 26.214 69.6705 26.003C68.4918 21.3001 66.6919 16.7446 65.9871 11.9303C65.9711 11.8347 65.8835 11.7392 65.8039 11.6914C65.7442 11.6555 65.6725 11.6356 65.6048 11.6356C65.5689 11.6396 65.5331 11.6436 65.4973 11.6516Z" fill="#9594AE"/>
<path d="M65.8716 12.9975C65.6526 13.0572 65.549 13.2763 65.5928 13.4873C66.5724 18.3255 68.0099 23.0562 69.3121 27.8148C69.3678 28.0259 69.5948 28.1493 69.8019 28.0936C70.0129 28.0378 70.1364 27.8148 70.0806 27.6038C68.7825 22.8452 67.341 18.1185 66.3614 13.2763C66.3255 13.0971 66.1463 12.9856 65.9711 12.9856C65.9353 12.9856 65.9034 12.9895 65.8716 12.9975Z" fill="#9594AE"/>
<path d="M66.9467 16.6531C66.8472 16.6809 66.7596 16.7446 66.7078 16.8362C66.6481 16.9358 66.6521 17.0314 66.668 17.1429C67.2812 21.5431 68.5356 25.8278 69.9094 30.0408C69.9771 30.2479 70.1842 30.3793 70.3992 30.3196C70.6023 30.2638 70.7456 30.0368 70.6779 29.8298C69.3041 25.6127 68.0498 21.332 67.4325 16.9318C67.4206 16.8362 67.329 16.7407 67.2494 16.6929C67.1896 16.657 67.118 16.6371 67.0463 16.6371C67.0144 16.6411 66.9786 16.6451 66.9467 16.6531Z" fill="#9594AE"/>
<path d="M66.0508 13.9134C65.8318 13.9731 65.7282 14.1921 65.772 14.4032C66.7397 18.9786 68.0458 23.4704 69.4475 27.9263C69.5112 28.1334 69.7222 28.2648 69.9373 28.2051C70.1404 28.1493 70.2797 27.9223 70.216 27.7153C68.8143 23.2593 67.5082 18.7675 66.5406 14.1921C66.5007 14.0129 66.3255 13.9014 66.1503 13.9014C66.1185 13.9014 66.0826 13.9054 66.0508 13.9134Z" fill="#9594AE"/>
<path d="M65.553 12.3883C65.4535 12.4161 65.3659 12.4838 65.3141 12.5714C65.2583 12.671 65.2544 12.7705 65.2743 12.8781C66.0747 17.4535 67.6874 21.8218 68.8342 26.3136C68.89 26.5246 69.117 26.6481 69.324 26.5884C69.5351 26.5326 69.6546 26.3096 69.6028 26.0986C68.4559 21.6108 66.8432 17.2384 66.0428 12.667C66.0269 12.5714 65.9433 12.4759 65.8596 12.4281C65.7999 12.3922 65.7282 12.3723 65.6565 12.3723C65.6207 12.3763 65.5849 12.3803 65.553 12.3883Z" fill="#9594AE"/>
<path d="M65.4017 11.8985C65.1946 11.9582 65.0632 12.1812 65.1229 12.3882C66.6202 17.4097 68.0179 22.4629 69.559 27.4684C69.6665 27.8188 69.774 28.1692 69.8855 28.5197C69.9492 28.7267 70.1603 28.8581 70.3753 28.7984C70.5784 28.7427 70.7178 28.5157 70.654 28.3086C69.0891 23.3071 67.6874 18.2539 66.2021 13.2285L65.8875 12.1732C65.8357 11.998 65.6764 11.8825 65.5012 11.8825C65.4734 11.8825 65.4375 11.8865 65.4017 11.8985Z" fill="#9594AE"/>
<path d="M67.556 18.676C67.4883 18.7436 67.4286 18.8591 67.4405 18.9587C67.7232 21.3201 68.2568 23.6336 68.882 25.9233C69.5032 28.2051 70.212 30.4589 70.8253 32.7407C70.881 32.9517 71.108 33.0752 71.3151 33.0194C71.5261 32.9597 71.6496 32.7407 71.5898 32.5296C70.4191 28.1652 68.9019 23.8726 68.2887 19.3768C68.2927 19.3927 68.2927 19.4087 68.2927 19.4246C68.2728 19.2693 68.2528 19.118 68.2329 18.9587C68.217 18.8472 68.1971 18.7596 68.1174 18.676C68.0418 18.6003 67.9422 18.5605 67.8347 18.5605C67.7272 18.5605 67.6316 18.6043 67.556 18.676Z" fill="#9594AE"/>
<path d="M67.9303 20.233C67.8626 20.3006 67.8029 20.4161 67.8148 20.5157C68.0776 22.7894 68.5595 25.0234 69.1369 27.2374C69.7143 29.4395 70.3873 31.6137 71.0204 33.7999C71.0801 34.007 71.2991 34.1344 71.5102 34.0786C71.7173 34.0189 71.8487 33.7959 71.7889 33.5888C70.5983 29.4674 69.2643 25.3619 68.6829 21.0931C68.6869 21.1289 68.6909 21.1648 68.6949 21.2006C68.663 20.9736 68.6351 20.7466 68.6112 20.5197C68.5993 20.4082 68.5754 20.3206 68.4958 20.2369C68.4201 20.1613 68.3206 20.1215 68.213 20.1215C68.1055 20.1175 68.002 20.1613 67.9303 20.233Z" fill="#9594AE"/>
<path d="M64.3225 7.74515C64.223 7.77302 64.1394 7.84072 64.0836 7.92832C64.0279 8.02787 64.0239 8.12743 64.0438 8.23494C64.2947 9.63663 64.7924 10.9666 65.3101 12.2807C65.3499 12.3803 65.3937 12.4639 65.4933 12.5197C65.5888 12.5754 65.7003 12.5874 65.7999 12.5595C65.8995 12.5316 65.9831 12.4639 66.0388 12.3763C66.0866 12.2927 66.1145 12.1653 66.0786 12.0697C65.561 10.7516 65.0632 9.4216 64.8123 8.02389C64.7805 7.8447 64.5933 7.7332 64.4181 7.7332C64.3863 7.7332 64.3544 7.73718 64.3225 7.74515Z" fill="#9594AE"/>
<path d="M63.9642 8.29866C64.0318 9.28622 64.2787 10.2379 64.5973 11.1737C64.9159 12.1215 65.3021 13.0453 65.6247 13.993C65.6964 14.2001 65.8955 14.3315 66.1145 14.2718C66.3136 14.216 66.4649 13.9851 66.3932 13.782C65.8238 12.1135 65.0513 10.4928 64.8044 8.73669C64.7884 8.59334 64.7725 8.446 64.7645 8.30264C64.7486 8.08761 64.5933 7.90444 64.3663 7.90444C64.1553 7.90045 63.9482 8.08363 63.9642 8.29866Z" fill="#9594AE"/>
<path d="M64.1951 8.27875C64.0956 8.30662 64.012 8.37432 63.9562 8.46192C63.9005 8.56147 63.8965 8.66103 63.9164 8.76854C64.3226 10.9109 65.1429 12.9378 65.8517 14.9886C65.9234 15.1956 66.1225 15.327 66.3415 15.2673C66.5406 15.2115 66.6919 14.9846 66.6202 14.7775C65.9114 12.7227 65.0911 10.6959 64.6849 8.55749C64.6531 8.3783 64.4699 8.2668 64.2947 8.2668C64.2589 8.2668 64.227 8.27078 64.1951 8.27875Z" fill="#9594AE"/>
<path d="M64.4261 8.82031C64.3265 8.84818 64.2389 8.9119 64.1872 9.00349C64.1274 9.10304 64.1314 9.19861 64.1473 9.31011C64.4938 11.6994 65.4176 13.9452 66.218 16.2111C66.2897 16.4141 66.4888 16.5495 66.7078 16.4898C66.9069 16.434 67.0582 16.2031 66.9866 16C66.1862 13.7382 65.2623 11.4883 64.9159 9.09906C64.8999 9.00349 64.8123 8.90792 64.7327 8.86013C64.673 8.82429 64.6013 8.80438 64.5336 8.80438C64.4978 8.80836 64.4619 8.81235 64.4261 8.82031Z" fill="#9594AE"/>
<path d="M64.9039 10.4928C64.6849 10.5525 64.5854 10.7715 64.6292 10.9826C65.0513 13.0732 65.8716 15.0562 66.4649 17.0991C66.5246 17.3061 66.7437 17.4335 66.9547 17.3738C67.1618 17.3181 67.2932 17.0911 67.2335 16.884C66.6361 14.8412 65.8198 12.8581 65.3937 10.7675C65.3579 10.5884 65.1787 10.4769 65.0035 10.4769C64.9716 10.4808 64.9358 10.4848 64.9039 10.4928Z" fill="#9594AE"/>
<path d="M63.8327 7.37482C63.8925 8.3345 64.0836 9.27427 64.3425 10.1981C64.4022 10.4052 64.6212 10.5326 64.8322 10.4769C65.0393 10.4171 65.1667 10.1941 65.111 9.98706C64.9358 9.35789 64.7884 8.72076 64.6969 8.07566C64.669 7.84072 64.6451 7.60976 64.6292 7.37482C64.6172 7.15978 64.4579 6.97661 64.231 6.97661C64.0239 6.97661 63.8208 7.1558 63.8327 7.37482Z" fill="#9594AE"/>
<path d="M63.9721 7.70532C63.9522 8.25485 64.0119 8.80836 64.1513 9.34196C64.2031 9.55301 64.434 9.67645 64.6411 9.6207C64.8561 9.56097 64.9756 9.34196 64.9199 9.13091C64.8721 8.93578 64.8323 8.74464 64.8044 8.54554C64.7725 8.26679 64.7606 7.98407 64.7725 7.70532C64.7805 7.48631 64.5854 7.30711 64.3743 7.30711C64.1473 7.30711 63.9801 7.48631 63.9721 7.70532Z" fill="#9594AE"/>
<path d="M63.9841 7.64162C63.9482 8.15929 64.008 8.67696 64.1394 9.17472C64.1951 9.38577 64.4221 9.50921 64.6292 9.45346C64.8402 9.39771 64.9637 9.17472 64.9079 8.96367C64.8601 8.79244 64.8243 8.62121 64.8004 8.446C64.7725 8.1792 64.7645 7.9124 64.7845 7.64162C64.8004 7.42658 64.5933 7.24341 64.3863 7.24341C64.1553 7.24341 64 7.42658 63.9841 7.64162Z" fill="#9594AE"/>
<path d="M64.0518 7.92833C64.0398 8.39423 64.0916 8.86014 64.2071 9.31409C64.2588 9.52514 64.4898 9.64859 64.6969 9.59284C64.9079 9.53311 65.0274 9.31409 64.9756 9.10304C64.9358 8.94774 64.9039 8.79244 64.88 8.63316C64.8522 8.39821 64.8442 8.16725 64.8482 7.92833C64.8561 7.7133 64.665 7.53012 64.45 7.53012C64.231 7.53012 64.0597 7.7133 64.0518 7.92833Z" fill="#9594AE"/>
<path d="M64.0478 7.55002C64 7.80089 63.9761 8.05176 63.9761 8.30661C63.9761 8.58138 64.0199 8.86012 64.0876 9.12692C64.1394 9.33797 64.3703 9.46142 64.5774 9.40567C64.7924 9.34594 64.9079 9.12692 64.8561 8.91587C64.8283 8.81234 64.8084 8.70881 64.7924 8.60527C64.7685 8.37431 64.7685 8.14733 64.7884 7.92035C64.7964 7.86859 64.8044 7.8208 64.8123 7.76903C64.8322 7.66152 64.8323 7.56197 64.7725 7.46241C64.7208 7.37481 64.6331 7.30711 64.5336 7.27924C64.5017 7.27127 64.4659 7.26729 64.434 7.26729C64.2628 7.25933 64.0796 7.37083 64.0478 7.55002Z" fill="#9594AE"/>
<path d="M63.9482 7.58984C63.9323 8.35838 64.0796 9.12294 64.2827 9.86361C64.3385 10.0707 64.5615 10.1981 64.7725 10.1384C64.9836 10.0826 65.111 9.85963 65.0513 9.64858C64.9398 9.25435 64.8482 8.85216 64.7884 8.44201C64.7566 8.15928 64.7407 7.87257 64.7446 7.58984C64.7486 7.37083 64.5615 7.19164 64.3464 7.19164C64.1274 7.19164 63.9522 7.37083 63.9482 7.58984Z" fill="#9594AE"/>
<path d="M64.4102 8.07167C64.3106 8.09954 64.227 8.16724 64.1712 8.25484C64.1155 8.3544 64.1115 8.45395 64.1314 8.56147C64.6571 11.4445 65.788 14.1643 66.6083 16.9676C66.668 17.1747 66.883 17.3021 67.0981 17.2464C67.3051 17.1867 67.4365 16.9637 67.3768 16.7566C66.5565 13.9532 65.4296 11.2334 64.9 8.35041C64.8681 8.17122 64.6809 8.05972 64.5057 8.05972C64.4779 8.05972 64.442 8.06371 64.4102 8.07167Z" fill="#9594AE"/>
<path d="M65.2464 10.7277C65.1468 10.7556 65.0592 10.8233 65.0075 10.9109C64.9477 11.0104 64.9517 11.106 64.9676 11.2175C65.2822 13.4754 66.0348 15.6376 66.7237 17.7999C66.7914 18.007 66.9985 18.1384 67.2135 18.0786C67.4166 18.0229 67.556 17.7959 67.4923 17.5888C66.7994 15.4266 66.0508 13.2643 65.7322 11.0065C65.7203 10.9109 65.6287 10.8153 65.549 10.7675C65.4893 10.7317 65.4176 10.7118 65.3459 10.7118C65.3181 10.7158 65.2822 10.7198 65.2464 10.7277Z" fill="#9594AE"/>
<path d="M64.9796 10.5007C64.7606 10.5605 64.6571 10.7755 64.7009 10.9905C65.2026 13.3798 66.003 15.6934 66.7397 18.0189C66.8034 18.226 67.0144 18.3574 67.2295 18.2977C67.4326 18.2419 67.5719 18.0149 67.5082 17.8079C66.7755 15.4823 65.9711 13.1687 65.4694 10.7795C65.4336 10.6043 65.2544 10.4888 65.0791 10.4888C65.0473 10.4888 65.0115 10.4928 64.9796 10.5007Z" fill="#9594AE"/>
<path d="M65.1668 11.1737C65.0672 11.2016 64.9836 11.2653 64.9278 11.3569C64.8721 11.4564 64.8681 11.556 64.888 11.6635C65.326 13.9851 66.0946 16.227 66.7755 18.4848C66.8392 18.6919 67.0543 18.8233 67.2653 18.7636C67.4684 18.7078 67.6038 18.4808 67.5441 18.2738C66.8631 16.0159 66.0986 13.774 65.6566 11.4525C65.6247 11.2733 65.4415 11.1618 65.2663 11.1618C65.2305 11.1618 65.1986 11.1658 65.1668 11.1737Z" fill="#9594AE"/>
<path d="M46.2519 20.002C46.1802 20.002 46.1085 20.0099 46.0368 20.0219C45.8975 20.0498 45.7541 20.0976 45.6187 20.1732C45.4873 20.2449 45.3838 20.3166 45.2962 20.3962C45.2006 20.4878 45.1249 20.5873 45.0652 20.6869C44.9975 20.7944 44.9457 20.9099 44.9099 21.0214C44.886 21.0891 44.8661 21.1568 44.8462 21.2444C44.8462 21.1608 44.8143 21.0851 44.7865 21.0214C44.7387 20.9139 44.675 20.8103 44.5953 20.6988C44.5197 20.6033 44.436 20.5157 44.3365 20.44C44.2449 20.3683 44.1334 20.3046 43.994 20.2489C43.8547 20.1891 43.7113 20.1533 43.564 20.1414C43.5321 20.1414 43.5002 20.1374 43.4684 20.1374C43.4166 20.1374 43.3688 20.1414 43.3211 20.1453C43.1419 20.1692 42.9587 20.2529 42.8113 20.3803C42.6799 20.4997 42.5724 20.655 42.4928 20.8422C42.4171 21.0134 42.3773 21.2125 42.3693 21.4236C42.3454 21.9612 42.5844 22.4151 42.7875 22.7018C43.0104 23.0284 43.333 23.3191 43.767 23.5938C44.1732 23.8487 44.6073 24.0318 44.9776 24.1792L45.0333 24.1872C45.336 24.0318 45.782 23.7929 46.1881 23.4783C46.5864 23.1677 46.881 22.8372 47.0682 22.4948C47.2394 22.1881 47.4306 21.7103 47.3549 21.1807C47.323 20.9656 47.2593 20.7705 47.1717 20.6152C47.0722 20.4281 46.9487 20.2847 46.8054 20.1891C46.6541 20.0816 46.4868 20.0219 46.3156 20.006L46.2519 20.002Z" fill="#F69ECC"/>
<path d="M38.9686 21.6705C38.7417 21.6705 38.5027 21.6944 38.2519 21.7342C37.77 21.8218 37.2922 21.993 36.8303 22.2399C36.3803 22.4828 36.0219 22.7337 35.7352 23.0085C35.4206 23.3111 35.1538 23.6416 34.9428 23.9881C34.7158 24.3664 34.5326 24.7526 34.4012 25.1349C34.3176 25.3778 34.2459 25.6207 34.1782 25.8995C34.1264 25.6566 34.0348 25.4057 33.9074 25.1389C33.7362 24.7646 33.5172 24.3982 33.2544 24.0478C33.0154 23.7292 32.7168 23.4266 32.3664 23.1558C32.0478 22.9129 31.6695 22.6979 31.2036 22.5027C30.7138 22.2997 30.22 22.1762 29.7342 22.1404C29.6267 22.1324 29.5232 22.1284 29.4156 22.1284C29.2524 22.1284 29.0811 22.1404 28.9059 22.1643C28.2967 22.2439 27.6834 22.5266 27.1777 22.9567C26.7277 23.3509 26.3574 23.8805 26.0866 24.5376C25.8397 25.1269 25.6924 25.8158 25.6645 26.5246C25.5928 28.3564 26.4012 29.9174 27.0901 30.9049C27.8786 32.0398 28.9776 33.0353 30.443 33.9512C31.8487 34.8352 33.338 35.4684 34.6083 35.9701C34.6322 35.99 34.668 36.002 34.6999 36.002C34.7397 36.002 34.7676 35.994 34.7914 35.9821C36.01 35.3529 37.4316 34.5724 38.7377 33.553C40.0876 32.5017 41.103 31.3669 41.7641 30.1802C42.3494 29.1289 42.9945 27.4963 42.7397 25.6804C42.6401 24.9716 42.4251 24.3026 42.1224 23.7491C41.784 23.12 41.3619 22.6302 40.8761 22.2877C40.3664 21.9333 39.7929 21.7223 39.2155 21.6785L39.0841 21.6705H38.9686Z" fill="#F69ECC"/>
</svg>