<svg width="199" height="49" viewBox="0 0 199 49" fill="none" xmlns="http://www.w3.org/2000/svg">
<path d="M27.8981 3.734C25.9261 1.762 23.3161 0.833997 20.3581 1.008C14.6741 1.298 11.4841 8.084 11.8321 19.162C12.0641 25.948 13.3981 30.24 16.0081 32.502C17.3421 33.72 18.9661 34.3 20.7641 34.3C21.0541 34.3 21.2861 34.3 21.5761 34.242C27.4341 33.72 31.1461 27.92 31.7261 18.35C31.9581 13.71 31.5521 7.388 27.8981 3.734ZM25.4621 18.002C25.1141 23.802 23.3161 27.804 20.9961 28.036C20.4741 28.094 20.3001 27.978 20.1261 27.804C19.7201 27.456 18.3281 25.716 18.0961 18.93C17.8641 10.926 19.8941 7.272 20.7061 7.214C22.2721 7.156 23.0261 7.736 23.4321 8.142C24.9981 9.708 25.7521 13.304 25.4621 18.002ZM6.78612 38.07L6.90212 2.806L0.63812 2.748L0.52212 45.262L4.06012 44.74C15.6021 43.116 28.6521 41.492 30.5661 41.724L31.2621 35.46C28.4201 35.17 14.5001 36.968 6.78612 38.07ZM56.5723 28.5C56.3403 20.38 54.6583 4.372 54.5423 3.676L48.3363 4.314C48.3363 4.372 48.3943 4.778 48.4523 5.474C46.8283 4.778 44.9723 4.546 43.0003 5.242C38.0123 6.924 34.9963 12.202 35.4603 18.35C35.6923 21.134 37.7223 23.744 40.5643 24.904C41.6663 25.368 42.8263 25.6 43.9283 25.6C46.0163 25.6 48.0463 24.846 49.7283 23.454C49.8443 23.338 49.9603 23.28 50.0183 23.222C50.1343 25.194 50.2503 27.108 50.3083 28.674C50.4823 35.46 48.8583 37.838 48.1623 38.534C47.6983 39.056 47.1183 39.288 46.3643 39.288C44.6243 39.288 44.2183 38.882 44.1023 38.708C43.3483 37.954 42.5943 35.46 43.0583 27.978L36.8523 27.572C36.2723 36.04 37.0263 40.332 39.5203 43C41.1443 44.682 43.3483 45.552 46.3643 45.552C48.8003 45.552 51.0043 44.624 52.6283 42.942C55.4123 40.1 56.7463 35.228 56.5723 28.5ZM45.7263 18.64C44.5663 19.626 43.5223 19.394 42.9423 19.162C42.1883 18.814 41.7823 18.234 41.7243 17.828C41.4343 14.58 42.7683 11.912 45.0303 11.158C45.1463 11.1 45.2623 11.1 45.3783 11.1C46.4223 11.1 47.8143 12.318 48.3363 12.898C48.3943 13.942 47.8723 16.842 45.7263 18.64ZM79.8249 5.706C77.5049 3.328 74.3149 2.168 70.6609 2.4C63.9329 2.748 60.0469 11.158 60.4529 24.44C60.7429 32.676 62.3089 37.838 65.4409 40.622C67.0069 42.014 68.9789 42.71 71.1249 42.71C71.4729 42.71 71.7629 42.71 72.0529 42.71C79.0709 42.072 83.7109 34.822 84.4069 23.396C84.7549 17.77 84.2909 10.172 79.8249 5.706ZM78.2009 22.99C77.6789 30.994 75.1269 36.098 71.4729 36.446C70.4289 36.562 69.9649 36.214 69.5589 35.924C68.6309 35.054 67.0069 32.444 66.7169 24.208C66.3689 13.768 69.0369 8.722 70.9509 8.606C71.1249 8.606 71.2989 8.606 71.4149 8.606C73.0969 8.606 74.4309 9.128 75.4169 10.114C77.5629 12.26 78.5489 16.958 78.2009 22.99ZM152.192 37.722C146.276 45.842 132.994 41.956 124.12 39.288C127.252 36.04 129.224 30.53 129.63 23.396C129.978 17.77 129.514 10.172 125.048 5.706C122.728 3.328 119.538 2.168 115.884 2.4C109.156 2.748 105.27 11.158 105.676 24.44C105.908 31.864 107.242 36.736 109.736 39.694C109.504 39.868 109.272 40.1 109.098 40.274C107.3 42.072 106.198 44.682 106.198 47.234H112.462C112.462 46.654 112.694 45.494 113.506 44.74C114.144 44.044 115.072 43.754 116.348 43.754C117.218 43.754 119.77 44.566 122.032 45.204C126.73 46.596 133.168 48.568 139.432 48.8C139.896 48.8 140.36 48.8 140.824 48.8C148.132 48.8 153.642 46.364 157.238 41.434L152.192 37.722ZM123.424 22.99C122.902 30.994 120.35 36.098 116.696 36.446C115.652 36.562 115.188 36.214 114.782 35.924C113.854 35.054 112.23 32.444 111.94 24.208C111.592 13.768 114.26 8.722 116.174 8.606C118.088 8.548 119.538 9.012 120.64 10.114C122.786 12.26 123.772 16.958 123.424 22.99ZM142.622 39.694C142.738 39.694 142.796 39.694 142.912 39.694C149.06 39.404 153.178 35.518 154.106 28.906C154.976 23.164 154.686 4.836 154.686 4.024L148.422 4.14C148.538 9.302 148.596 23.628 147.958 28.036C147.436 31.574 145.754 33.314 142.68 33.43H142.622C141.056 33.43 139.49 29.544 138.968 25.89C138.33 21.656 138.388 8.722 138.504 4.14L132.24 4.024C132.24 4.72 131.95 21.192 132.762 26.818C133.98 34.88 137.634 39.694 142.622 39.694ZM161.631 12.26C161.631 15.044 161.341 39.81 161.631 43.522L167.895 43C167.663 40.1 167.837 19.858 167.895 12.318L161.631 12.26ZM164.705 0.137999C162.965 0.137999 161.399 1.066 160.471 2.632C159.485 4.43 159.427 6.634 160.413 8.316C161.283 9.824 162.791 10.694 164.647 10.694C167.779 10.694 170.099 8.432 170.099 5.474C170.099 2.458 167.721 0.137999 164.705 0.137999ZM197.394 3.154C196.35 2.168 195.19 1.008 174.484 3.212L175.122 9.418C180.922 8.78 187.65 8.258 191.42 8.2C190.086 11.68 187.128 16.378 184.344 20.496C181.502 20.264 178.544 20.032 175.76 19.742L175.122 25.948C176.63 26.122 178.312 26.296 180.168 26.47C178.834 28.268 177.79 29.776 177.152 30.82C173.15 37.49 172.744 38.766 173.092 40.332C173.672 42.652 175.992 42.768 176.862 42.826C177.5 42.884 178.254 42.884 179.356 42.884C179.994 42.942 180.69 42.942 181.502 42.942C182.894 42.942 184.518 42.884 186.432 42.884C191.478 42.826 196.582 42.71 196.582 42.71L196.466 36.446C190.898 36.562 184.866 36.678 180.98 36.678C181.386 35.924 181.908 35.054 182.546 34.01C183.126 33.082 184.344 31.342 185.736 29.37C186.316 28.558 186.896 27.746 187.476 26.934C188.81 26.992 190.144 27.05 191.362 27.05C194.204 27.05 196.582 26.818 197.742 26.354L195.306 20.554H195.364C194.784 20.728 193.45 20.786 191.594 20.786C195.364 14.986 198.148 9.708 198.438 5.764C198.496 4.778 198.148 3.85 197.394 3.154Z" fill="#F9C94D"/>
</svg>
