<svg width="48" height="48" viewBox="0 0 48 48" fill="none" xmlns="http://www.w3.org/2000/svg">
<g style="mix-blend-mode:lighten" opacity="0.1">
<circle cx="24" cy="24" r="24" fill="#F9C94D"/>
</g>
<g clip-path="url(#clip0)">
<path d="M29.387 28.7103C28.6885 27.4515 28.2866 26.1081 28.1869 24.7081H24.7081V36C27.6527 35.83 30.3975 34.6031 32.5003 32.5003C32.5601 32.4404 32.6188 32.3798 32.6772 32.3189L32.646 32.2969C31.2847 31.3395 30.1578 30.0992 29.387 28.7103Z" fill="#F9C94D"/>
<path d="M18.3891 24.7081H12C12.1377 27.0936 12.9695 29.3475 14.3984 31.2355L14.538 31.1373C16.7988 29.5463 18.175 27.2323 18.3891 24.7081Z" fill="#F9C94D"/>
<path d="M29.6079 24.7081C29.822 27.2331 31.1989 29.5476 33.4608 31.1386L33.6006 31.2369C35.0301 29.3486 35.8623 27.0942 36 24.7081H29.6079Z" fill="#F9C94D"/>
<path d="M29.6101 23.2919H36C35.8627 20.9133 35.0354 18.6655 33.614 16.7809L33.4351 16.9076C31.1973 18.492 29.8313 20.7886 29.6101 23.2919Z" fill="#F9C94D"/>
<path d="M18.6051 19.309C19.302 20.5618 19.7046 21.8987 19.8079 23.2919H23.2919V12C20.3472 12.1699 17.6025 13.3969 15.4997 15.4997C15.434 15.5655 15.3693 15.632 15.3052 15.699L15.3341 15.7192C16.7001 16.6765 17.8312 17.9178 18.6051 19.309Z" fill="#F9C94D"/>
<path d="M18.3869 23.2919C18.1646 20.7717 16.784 18.4646 14.5213 16.879L14.3843 16.783C12.9639 18.6672 12.1372 20.9142 12 23.2919H18.3869Z" fill="#F9C94D"/>
<path d="M24.7081 23.2919H28.1895C28.4116 20.3244 29.9966 17.6069 32.6168 15.7517L32.6934 15.6975C32.6298 15.631 32.5656 15.565 32.5003 15.4997C30.3975 13.3969 27.6528 12.1699 24.7081 12V23.2919Z" fill="#F9C94D"/>
<path d="M23.2919 24.7081H19.8101C19.7104 26.1077 19.3088 27.4508 18.6106 28.7092C17.8403 30.0978 16.7138 31.338 15.3531 32.2955L15.3215 32.3177C15.3803 32.379 15.4395 32.4401 15.4997 32.5003C17.6025 34.6031 20.3472 35.8301 23.2919 36.0001V24.7081H23.2919Z" fill="#F9C94D"/>
</g>
<defs>
<clipPath id="clip0">
<rect width="24" height="24" fill="white" transform="translate(12 12)"/>
</clipPath>
</defs>
</svg>