<svg width="28" height="28" viewBox="0 0 28 28" fill="none" xmlns="http://www.w3.org/2000/svg">
<g clip-path="url(#clip0)">
<path d="M18.375 0H2.625C1.17833 0 0 1.17833 0 2.625V17.2083C0 18.655 1.17833 19.8333 2.625 19.8333H13.4167V16.4617C13.4167 14.9683 14.3733 13.6267 15.785 13.1483L20.7433 11.4567C20.825 11.4333 20.9183 11.41 21 11.3983V2.625C21 1.17833 19.8217 0 18.375 0Z" fill="#F1F5F9"/>
<path d="M27.209 15.358L22.2507 13.671C22.0068 13.5882 21.7432 13.5882 21.4993 13.671L16.541 15.358C16.0685 15.519 15.75 15.9635 15.75 16.4628V20.3151C15.75 24.5735 19.845 27.0911 21.3383 27.8681C21.6778 28.0443 22.0722 28.0443 22.4117 27.8681C23.905 27.0911 28 24.5746 28 20.3151V16.4628C28 15.9635 27.6815 15.519 27.209 15.358ZM26.0167 19.1718L22.5167 23.8385C22.3137 24.1091 22.0045 24.2783 21.6662 24.3016C21.6382 24.3028 21.6102 24.304 21.5833 24.304C21.2742 24.304 20.9778 24.1826 20.7585 23.9621L18.4252 21.6288C17.969 21.1726 17.969 20.4353 18.4252 19.9791C18.8813 19.523 19.6187 19.523 20.0748 19.9791L21.4573 21.3616L24.1512 17.7706C24.5385 17.2561 25.2688 17.15 25.7833 17.5373C26.299 17.9246 26.404 18.6561 26.0167 19.1718Z" fill="#297447"/>
<path d="M13.4167 11.6667H12.5417C12.0587 11.6667 11.6667 11.2747 11.6667 10.7917V5.54168C11.6667 5.05868 12.0587 4.66668 12.5417 4.66668H13.4167C15.3464 4.66668 16.9167 6.23701 16.9167 8.16668C16.9167 10.0963 15.3464 11.6667 13.4167 11.6667ZM13.4167 6.41668V9.91668C14.3816 9.91668 15.1667 9.13151 15.1667 8.16668C15.1667 7.20185 14.3816 6.41668 13.4167 6.41668Z" fill="#607D8B"/>
<path d="M8.45841 11.6667C7.97541 11.6667 7.58341 11.2747 7.58341 10.7917V7.00001C7.58341 6.67801 7.32208 6.41668 7.00008 6.41668C6.67808 6.41668 6.41675 6.67801 6.41675 7.00001V10.7917C6.41675 11.2747 6.02475 11.6667 5.54175 11.6667C5.05875 11.6667 4.66675 11.2747 4.66675 10.7917V7.00001C4.66675 5.71318 5.71325 4.66668 7.00008 4.66668C8.28691 4.66668 9.33341 5.71318 9.33341 7.00001V10.7917C9.33341 11.2747 8.94141 11.6667 8.45841 11.6667Z" fill="#607D8B"/>
<path d="M8.45841 9.91668H5.54175C5.05875 9.91668 4.66675 9.52468 4.66675 9.04168C4.66675 8.55868 5.05875 8.16668 5.54175 8.16668H8.45841C8.94141 8.16668 9.33341 8.55868 9.33341 9.04168C9.33341 9.52468 8.94141 9.91668 8.45841 9.91668Z" fill="#607D8B"/>
</g>
<defs>
<clipPath id="clip0">
<rect width="28" height="28" fill="white"/>
</clipPath>
</defs>
</svg>
