<svg width="18" height="18" viewBox="0 0 18 18" fill="none" xmlns="http://www.w3.org/2000/svg">
<path d="M9 0C4.0372 0 0 4.0372 0 9C0 13.9628 4.0372 18 9 18C13.9628 18 18 13.9628 18 9C18 4.0372 13.9628 0 9 0Z" fill="#A50FE2"/>
<path d="M12.9375 9.74997H9.74995V12.9375C9.74995 13.3516 9.41405 13.6875 9 13.6875C8.58595 13.6875 8.25005 13.3516 8.25005 12.9375V9.74997H5.0625C4.64845 9.74997 4.31255 9.41406 4.31255 9.00002C4.31255 8.58597 4.64845 8.25006 5.0625 8.25006H8.25005V5.06252C8.25005 4.64847 8.58595 4.31256 9 4.31256C9.41405 4.31256 9.74995 4.64847 9.74995 5.06252V8.25006H12.9375C13.3515 8.25006 13.6875 8.58597 13.6875 9.00002C13.6875 9.41406 13.3515 9.74997 12.9375 9.74997Z" fill="#F1F5F9"/>
</svg>