<svg width="18" height="18" viewBox="0 0 18 18" fill="none" xmlns="http://www.w3.org/2000/svg">
<path fill-rule="evenodd" clip-rule="evenodd" d="M5.37744 2.91051L3.07494 4.83051C2.75994 5.09301 2.28744 5.05551 2.02494 4.73301C1.75494 4.41801 1.79994 3.94551 2.11494 3.67551L4.42494 1.75551C4.73994 1.49301 5.21244 1.53051 5.47494 1.85301C5.74494 2.16801 5.69994 2.64051 5.37744 2.91051ZM15.8849 3.67551L13.5749 1.75551C13.2599 1.49301 12.7874 1.53051 12.5174 1.85301C12.2549 2.16801 12.2999 2.64051 12.6149 2.91051L14.9174 4.83051C15.2324 5.09301 15.7049 5.05551 15.9749 4.73301C16.2449 4.41801 16.1999 3.94551 15.8849 3.67551ZM11.9024 11.3555L9.37494 9.85551V6.45801C9.37494 6.15801 9.13494 5.91801 8.83494 5.91801H8.78994C8.48994 5.91801 8.24994 6.15801 8.24994 6.45801V9.99801C8.24994 10.2605 8.38494 10.508 8.61744 10.643L11.3549 12.2855C11.6099 12.4355 11.9399 12.3605 12.0899 12.1055C12.2474 11.843 12.1649 11.5055 11.9024 11.3555ZM8.99994 2.91801C5.27244 2.91801 2.24994 5.94051 2.24994 9.66801C2.24994 13.3955 5.27244 16.418 8.99994 16.418C12.7274 16.418 15.7499 13.3955 15.7499 9.66801C15.7499 5.94051 12.7274 2.91801 8.99994 2.91801ZM3.74994 9.66801C3.74994 12.563 6.10494 14.918 8.99994 14.918C11.8949 14.918 14.2499 12.563 14.2499 9.66801C14.2499 6.77301 11.8949 4.41801 8.99994 4.41801C6.10494 4.41801 3.74994 6.77301 3.74994 9.66801Z" fill="#00C2FF"/>
</svg>