<svg width="28" height="28" viewBox="0 0 28 28" fill="none" xmlns="http://www.w3.org/2000/svg">
<path d="M14 27.9818C21.732 27.9818 28 21.7138 28 13.9818C28 6.24986 21.732 -0.0181556 14 -0.0181556C6.26801 -0.0181556 0 6.24986 0 13.9818C0 21.7138 6.26801 27.9818 14 27.9818Z" fill="#FFC700" fill-opacity="0.8"/>
<path d="M14 20.5444C17.6244 20.5444 20.5625 17.6062 20.5625 13.9819C20.5625 10.3575 17.6244 7.41937 14 7.41937C10.3756 7.41937 7.4375 10.3575 7.4375 13.9819C7.4375 17.6062 10.3756 20.5444 14 20.5444Z" fill="#EE0056"/>
<path d="M14 7.41937C13.9267 7.41937 13.8541 7.42244 13.7812 7.42484C17.304 7.54056 20.125 10.4309 20.125 13.9819C20.125 17.5328 17.304 20.4232 13.7812 20.5391C13.8541 20.5413 13.9267 20.5444 14 20.5444C17.6243 20.5444 20.5625 17.6063 20.5625 13.9819C20.5625 10.3576 17.6243 7.41937 14 7.41937Z" fill="#EE0056"/>
<path d="M25.6605 6.23438C23.1517 2.46597 18.8666 -0.0181556 14.0001 -0.0181556C9.13354 -0.0181556 4.84844 2.46597 2.3396 6.23438H25.6605Z" fill="#263740"/>
<path d="M25.6605 21.7656C23.1517 25.4844 18.8666 28.0182 14.0001 28.0182C9.13354 28.0182 4.84844 25.4844 2.3396 21.7656H25.6605Z" fill="#263740"/>
<path d="M6.34375 4.92188C6.34375 5.1625 6.14688 5.35938 5.90625 5.35938H5.03125C4.79062 5.35938 4.59375 5.1625 4.59375 4.92188V4.04688C4.59375 3.80625 4.79062 3.60938 5.03125 3.60938H5.90625C6.14688 3.60938 6.34375 3.80625 6.34375 4.04688V4.92188Z" fill="#FFC700" fill-opacity="0.8"/>
<path d="M10.7188 4.92188C10.7188 5.1625 10.5219 5.35938 10.2812 5.35938H9.40625C9.16562 5.35938 8.96875 5.1625 8.96875 4.92188V4.04688C8.96875 3.80625 9.16562 3.60938 9.40625 3.60938H10.2812C10.5219 3.60938 10.7188 3.80625 10.7188 4.04688V4.92188Z" fill="#FFC700" fill-opacity="0.8"/>
<path d="M15.0938 4.92188C15.0938 5.1625 14.8969 5.35938 14.6562 5.35938H13.7812C13.5406 5.35938 13.3438 5.1625 13.3438 4.92188V4.04688C13.3438 3.80625 13.5406 3.60938 13.7812 3.60938H14.6562C14.8969 3.60938 15.0938 3.80625 15.0938 4.04688V4.92188Z" fill="#FFC700" fill-opacity="0.8"/>
<path d="M19.4688 4.92188C19.4688 5.1625 19.2719 5.35938 19.0312 5.35938H18.1562C17.9156 5.35938 17.7188 5.1625 17.7188 4.92188V4.04688C17.7188 3.80625 17.9156 3.60938 18.1562 3.60938H19.0312C19.2719 3.60938 19.4688 3.80625 19.4688 4.04688V4.92188Z" fill="#FFC700" fill-opacity="0.8"/>
<path d="M22.5312 5.35938H23.4062C23.6469 5.35938 23.8438 5.1625 23.8438 4.92188V4.04688C23.8438 4.04075 23.8422 4.03506 23.842 4.02894C23.6974 3.88588 23.5498 3.74609 23.399 3.60938H22.5312C22.2906 3.60938 22.0938 3.80625 22.0938 4.04688V4.92188C22.0938 5.1625 22.2906 5.35938 22.5312 5.35938Z" fill="#FFC700" fill-opacity="0.8"/>
<path d="M6.34375 23.0781C6.34375 22.8366 6.14775 22.6406 5.90625 22.6406H5.03125C4.78975 22.6406 4.59375 22.8366 4.59375 23.0781V23.9531C4.59375 24.1946 4.78975 24.3906 5.03125 24.3906H5.90625C6.14775 24.3906 6.34375 24.1946 6.34375 23.9531V23.0781Z" fill="#FFC700" fill-opacity="0.8"/>
<path d="M10.7188 23.0781C10.7188 22.8366 10.5228 22.6406 10.2812 22.6406H9.40625C9.16475 22.6406 8.96875 22.8366 8.96875 23.0781V23.9531C8.96875 24.1946 9.16475 24.3906 9.40625 24.3906H10.2812C10.5228 24.3906 10.7188 24.1946 10.7188 23.9531V23.0781Z" fill="#FFC700" fill-opacity="0.8"/>
<path d="M15.0938 23.0781C15.0938 22.8366 14.8978 22.6406 14.6562 22.6406H13.7812C13.5398 22.6406 13.3438 22.8366 13.3438 23.0781V23.9531C13.3438 24.1946 13.5398 24.3906 13.7812 24.3906H14.6562C14.8978 24.3906 15.0938 24.1946 15.0938 23.9531V23.0781Z" fill="#FFC700" fill-opacity="0.8"/>
<path d="M19.4688 23.0781C19.4688 22.8366 19.2728 22.6406 19.0312 22.6406H18.1562C17.9148 22.6406 17.7188 22.8366 17.7188 23.0781V23.9531C17.7188 24.1946 17.9148 24.3906 18.1562 24.3906H19.0312C19.2728 24.3906 19.4688 24.1946 19.4688 23.9531V23.0781Z" fill="#FFC700" fill-opacity="0.8"/>
<path d="M22.5312 22.6406H23.4062C23.6469 22.6406 23.8438 22.8008 23.8438 23.0416V23.9166C23.8438 23.9227 23.8422 23.9466 23.842 23.9527C23.6974 24.0958 23.5498 24.1719 23.399 24.3906H22.5312C22.2906 24.3906 22.0938 24.1574 22.0938 23.9166V23.0416C22.0938 22.8008 22.2906 22.6406 22.5312 22.6406Z" fill="#FFC700" fill-opacity="0.8"/>
<path d="M12.0312 10.4425C12.0312 10.2755 12.1419 10.2139 12.2815 10.3053L17.6376 13.8154C17.7769 13.9068 17.776 14.0564 17.6365 14.1481L12.2817 17.6582C12.1417 17.7496 12.031 17.6881 12.031 17.521L12.0312 10.4425Z" fill="#F5F5F5"/>
<path d="M2.4901 6.01563C2.43979 6.08847 2.38882 6.16066 2.3396 6.23438H25.6605C25.6115 6.16066 25.5606 6.08847 25.51 6.01563H2.4901Z" fill="#354D59"/>
<path d="M25.5079 21.9844C25.5588 21.9115 25.6107 21.8393 25.6603 21.7656H2.3396C2.38926 21.8393 2.44088 21.9115 2.49185 21.9844H25.5079Z" fill="#354D59"/>
</svg>
