<svg width="28" height="28" viewBox="0 0 28 28" fill="none" xmlns="http://www.w3.org/2000/svg">
<path fill-rule="evenodd" clip-rule="evenodd" d="M17.5058 25.0542V20.6092C19.5942 19.3958 21.0058 17.1442 21.0058 14.5425C21.0058 10.4008 17.3775 7.0875 13.1308 7.60083C10.0742 7.97417 7.55416 10.4125 7.0875 13.4575C6.6325 16.5025 8.12583 19.2325 10.5058 20.6092V25.0542C10.5058 25.6958 11.0308 26.2208 11.6725 26.2208H16.3392C16.9808 26.2208 17.5058 25.6958 17.5058 25.0542ZM3.51749 15.7208H2.32749C1.68582 15.7208 1.17249 15.2075 1.17249 14.5658V14.5542C1.17249 13.9125 1.68582 13.3992 2.32749 13.3992H3.50582C4.14749 13.3992 4.66082 13.9125 4.66082 14.5542V14.5658C4.67249 15.2075 4.15915 15.7208 3.51749 15.7208ZM6.60916 5.52416C6.15416 5.06916 5.41916 5.06916 4.96416 5.52416C4.50916 5.97916 4.50916 6.7025 4.9525 7.16916L5.4075 7.62416C5.62547 7.84263 5.92139 7.9654 6.23 7.9654C6.5386 7.9654 6.83453 7.84263 7.0525 7.62416L7.06416 7.6125C7.5075 7.16916 7.51916 6.43417 7.06416 5.97917L6.60916 5.52416ZM14.0058 1.77916H13.9942C13.3525 1.77916 12.8392 2.2925 12.8392 2.93416V4.05416C12.8392 4.69583 13.3525 5.20916 13.9942 5.20916H14.0058C14.6475 5.20916 15.1608 4.69583 15.1608 4.05416V2.93416C15.1608 2.2925 14.6475 1.77916 14.0058 1.77916ZM23.3392 14.5658V14.5542C23.3392 13.9125 23.8525 13.3992 24.4942 13.3992H25.6725C26.3142 13.3992 26.8275 13.9125 26.8275 14.5542V14.5658C26.8275 15.2075 26.3142 15.7208 25.6725 15.7208H24.4942C23.8525 15.7208 23.3392 15.2075 23.3392 14.5658ZM21.3908 5.5125L20.9358 5.9675C20.4808 6.4225 20.4808 7.14583 20.9475 7.6125C21.3908 8.05583 22.1258 8.0675 22.5808 7.6125L23.0358 7.1575C23.4908 6.7025 23.4908 5.9675 23.0358 5.5125C22.5808 5.0575 21.8458 5.0575 21.3908 5.5125Z" fill="#00C2FF"/>
</svg>