<svg width="18" height="18" viewBox="0 0 18 18" fill="none" xmlns="http://www.w3.org/2000/svg">
<path d="M9 18C13.9706 18 18 13.9706 18 9C18 4.02944 13.9706 0 9 0C4.02944 0 0 4.02944 0 9C0 13.9706 4.02944 18 9 18Z" fill="#FFE14D"/>
<path d="M18 9C18 4.03738 13.9626 0 9 0V18C13.9626 18 18 13.9626 18 9Z" fill="#FFBB33"/>
<path d="M9 15.8555C5.22 15.8555 2.14453 12.78 2.14453 9C2.14453 5.22 5.22 2.14453 9 2.14453C12.78 2.14453 15.8555 5.22 15.8555 9C15.8555 12.78 12.78 15.8555 9 15.8555Z" fill="#FFBB33"/>
<path d="M15.8555 9C15.8555 5.22 12.78 2.14453 9 2.14453V15.8555C12.78 15.8555 15.8555 12.78 15.8555 9Z" fill="#E68A2E"/>
<path d="M9.52734 8.51021V6.42523C10.1339 6.57405 10.582 6.96428 10.582 7.41284C10.582 7.70432 10.8179 7.94019 11.1094 7.94019C11.4009 7.94019 11.6367 7.70432 11.6367 7.41284C11.6367 6.39394 10.7297 5.54204 9.52734 5.34615V4.77612C9.52734 4.48464 9.29148 4.24878 9 4.24878C8.70852 4.24878 8.47266 4.48464 8.47266 4.77612V5.34615C7.27035 5.54204 6.36328 6.39394 6.36328 7.41284C6.36328 8.43174 7.27035 9.28365 8.47266 9.47954V11.5645C7.86614 11.4157 7.41797 11.0255 7.41797 10.5769C7.41797 10.2854 7.18211 10.0496 6.89062 10.0496C6.59914 10.0496 6.36328 10.2854 6.36328 10.5769C6.36328 11.5958 7.27035 12.4477 8.47266 12.6436V13.2188C8.47266 13.5102 8.70852 13.7461 9 13.7461C9.29148 13.7461 9.52734 13.5102 9.52734 13.2188V12.6436C10.7297 12.4477 11.6367 11.5958 11.6367 10.5769C11.6367 9.55801 10.7297 8.70606 9.52734 8.51021ZM7.41797 7.41284C7.41797 6.96428 7.86614 6.57405 8.47266 6.42523V8.40045C7.86614 8.2516 7.41797 7.86137 7.41797 7.41284ZM9.52734 11.5645V9.58929C10.1339 9.73811 10.582 10.1283 10.582 10.5769C10.582 11.0255 10.1339 11.4157 9.52734 11.5645Z" fill="#FFE14D"/>
<path d="M9.52734 13.2188V12.6436C10.7297 12.4477 11.6367 11.5958 11.6367 10.5769C11.6367 9.55801 10.7297 8.7061 9.52734 8.51021V6.42523C10.1339 6.57405 10.582 6.96428 10.582 7.41284C10.582 7.70432 10.8179 7.94019 11.1094 7.94019C11.4009 7.94019 11.6367 7.70432 11.6367 7.41284C11.6367 6.39394 10.7297 5.54204 9.52734 5.34615V4.77612C9.52734 4.48464 9.29148 4.24878 9 4.24878V13.7461C9.29148 13.7461 9.52734 13.5102 9.52734 13.2188ZM9.52734 9.58926C10.1339 9.73808 10.582 10.1283 10.582 10.5769C10.582 11.0254 10.1339 11.4157 9.52734 11.5645V9.58926Z" fill="#FFBB33"/>
</svg>