<svg width="28" height="28" viewBox="0 0 28 28" fill="none" xmlns="http://www.w3.org/2000/svg">
<path d="M16.7535 7.1785C16.6435 7.06442 16.4919 7 16.3335 7H11.6668C11.5084 7 11.3568 7.06442 11.2468 7.1785C10.394 8.06165 2.91675 15.9064 2.91675 19.25C2.91675 24.0754 7.8891 28 14.0001 28C20.1111 28 25.0835 24.0754 25.0835 19.25C25.0835 15.9064 17.6062 8.06165 16.7535 7.1785Z" fill="#D91DF8"/>
<path d="M21.4376 0.7805C20.4658 -0.3185 17.9376 1.1235 16.4863 2.1C15.8213 1.155 14.8366 0 14.0001 0C13.1636 0 12.179 1.155 11.514 2.1C10.0661 1.12235 7.53327 -0.319648 6.56262 0.7805C6.29355 1.09074 6.16663 1.49942 6.21262 1.9075C6.40047 4.06815 10.7988 7.63935 11.2993 8.03835C11.4034 8.12197 11.5332 8.16725 11.6668 8.1667H16.3334C16.4656 8.16681 16.594 8.12197 16.6974 8.03955C17.1979 7.63941 21.5974 4.07291 21.7841 1.9087C21.8319 1.50068 21.7061 1.09134 21.4376 0.7805Z" fill="#D91DF8"/>
<path d="M18.6666 8.16665H9.33335C9.01119 8.16665 8.75 7.90546 8.75 7.5833C8.75 7.26113 9.01119 7 9.33335 7H18.6667C18.9889 7 19.2501 7.26119 19.2501 7.58335C19.2501 7.90552 18.9888 8.16665 18.6666 8.16665Z" fill="#592C6B"/>
<path d="M13.9998 23.3334C12.6126 23.4703 11.3491 22.5293 11.0831 21.161C11.0561 20.8388 11.2953 20.5557 11.6175 20.5287C11.9397 20.5016 12.2228 20.7408 12.2498 21.063C12.3012 21.672 13.0863 22.1667 13.9998 22.1667C14.9495 22.1667 15.7498 21.6323 15.7498 21C15.7498 20.4307 15.1968 20.0667 14.0103 19.845L13.8832 19.8217C11.9897 19.4717 11.0832 18.6982 11.0832 17.5C11.2657 16.0622 12.557 15.0291 13.9998 15.1667C15.387 15.0297 16.6505 15.9707 16.9165 17.339C16.9436 17.6612 16.7043 17.9443 16.3821 17.9714C16.06 17.9984 15.7769 17.7592 15.7498 17.437C15.7008 16.828 14.9156 16.3334 13.9998 16.3334C13.0501 16.3334 12.2498 16.8677 12.2498 17.5C12.2498 18.0694 12.8039 18.4334 13.9916 18.655L14.12 18.6795C16.01 19.0295 16.92 19.8019 16.92 21.0012C16.7368 22.44 15.4435 23.473 13.9998 23.3334Z" fill="#F1F5F9"/>
<path d="M13.9999 24.5C13.6777 24.5 13.4165 24.2388 13.4165 23.9166V14.5834C13.4165 14.2612 13.6777 14 13.9999 14C14.322 14 14.5832 14.2612 14.5832 14.5834V23.9167C14.5832 24.2388 14.322 24.5 13.9999 24.5Z" fill="#F1F5F9"/>
</svg>
