<svg width="28" height="28" viewBox="0 0 28 28" fill="none" xmlns="http://www.w3.org/2000/svg">
<path fill-rule="evenodd" clip-rule="evenodd" d="M18.0834 4.66667H21C21.6417 4.66667 22.1667 5.19167 22.1667 5.83333C22.1667 6.475 21.6417 7 21 7H7.00004C6.35837 7 5.83337 6.475 5.83337 5.83333C5.83337 5.19167 6.35837 4.66667 7.00004 4.66667H9.91671L10.745 3.83833C10.955 3.62833 11.2584 3.5 11.5617 3.5H16.4384C16.7417 3.5 17.045 3.62833 17.255 3.83833L18.0834 4.66667ZM9.33337 24.5C8.05004 24.5 7.00004 23.45 7.00004 22.1667V10.5C7.00004 9.21667 8.05004 8.16667 9.33337 8.16667H18.6667C19.95 8.16667 21 9.21667 21 10.5V22.1667C21 23.45 19.95 24.5 18.6667 24.5H9.33337Z" fill="#F9C94D"/>
</svg>