<svg width="28" height="28" viewBox="0 0 28 28" fill="none" xmlns="http://www.w3.org/2000/svg">
<g clip-path="url(#clip0)">
<path d="M13.9999 0C9.49168 0.00514062 5.83839 3.65848 5.83325 8.16665V13.4166C5.83325 13.7388 6.09444 14 6.4166 14C6.73877 14 6.9999 13.7388 6.9999 13.4166H8.16655C8.16655 13.7388 8.42774 14 8.7499 14C9.07206 14 9.33325 13.7388 9.33325 13.4166V8.16665C9.33325 5.58934 11.4226 3.5 13.9999 3.5C16.5772 3.5 18.6665 5.58934 18.6665 8.16665V11.0833C18.6665 11.4055 18.9277 11.6666 19.2499 11.6666H21.5833C21.9054 11.6666 22.1666 11.4055 22.1666 11.0833V8.16665C22.1614 3.65848 18.5081 0.00514062 13.9999 0Z" fill="#455A64"/>
<path d="M21.5835 12.8334H6.41675C5.45026 12.8334 4.66675 13.6169 4.66675 14.5834V25.0834C4.66675 26.6942 5.97258 28 7.5834 28H20.4167C22.0276 28 23.3334 26.6942 23.3334 25.0834V14.5834C23.3335 13.6169 22.5499 12.8334 21.5835 12.8334Z" fill="#F9C94D"/>
<path d="M15.5751 20.3816C16.0599 19.9435 16.3356 19.32 16.3335 18.6666C16.3335 17.378 15.2888 16.3333 14.0001 16.3333C12.7115 16.3333 11.6668 17.378 11.6668 18.6666C11.6647 19.32 11.9404 19.9435 12.4251 20.3816L11.6971 22.5656C11.5953 22.8713 11.7605 23.2016 12.0662 23.3034C12.1255 23.3232 12.1876 23.3333 12.2501 23.3333H15.7501C16.0723 23.3331 16.3333 23.0717 16.333 22.7495C16.333 22.687 16.3229 22.625 16.3031 22.5656L15.5751 20.3816Z" fill="#455A64"/>
</g>
<defs>
<clipPath id="clip0">
<rect width="28" height="28" fill="white"/>
</clipPath>
</defs>
</svg>
